<?xml version="1.0" encoding="utf-8"?>
<!-- Generator: Adobe Illustrator 27.0.0, SVG Export Plug-In . SVG Version: 6.00 Build 0)  -->
<svg version="1.1" id="Слой_1" xmlns="http://www.w3.org/2000/svg" xmlns:xlink="http://www.w3.org/1999/xlink" x="0px" y="0px"
	 width="1000px" height="324.21px" viewBox="0 0 1000 324.21" style="enable-background:new 0 0 1000 324.21;" xml:space="preserve"
	>
<style type="text/css">
	.st0{fill:#FFFFFF;}
	.st1{fill:#EBF3FA;}
	.st2{fill:#C8DBF4;}
	.st3{fill:#D4E4F8;}
	.st4{fill:#9FC1F4;}
	.st5{fill:#8CB4F4;}
	.st6{fill:#9ABFE2;}
	.st7{fill:#BAD4F4;}
	.st8{fill:#DFEBFD;}
	.st9{fill:#B7D3F3;}
	.st10{fill:#C0D8FB;}
	.st11{fill:#233862;}
	.st12{fill:#FFB27D;}
	.st13{fill:#0F2549;}
	.st14{fill:#2B478B;}
	.st15{fill:#ED975D;}
	.st16{fill:#EBF3FF;}
	.st17{fill:#ED7D2B;}
	.st18{fill:#F99746;}
	.st19{fill:#182D4F;}
	.st20{fill:#2E3552;}
	.st21{fill:#1B3051;}
	.st22{fill:#73A2E5;}
	.st23{fill:#3D4A59;}
	.st24{fill:#012970;}
	.st25{fill:#4154F1;}
</style>
<g>
	<rect class="st0" width="1000" height="324.21"/>
	<g>
		<path class="st1" d="M578.75,272.36c0,0-50.46-60.79-25.8-123.37c16.08-40.79,76.38-63.14,110.41-40.79
			c14.49,9.52,61,0.32,85.83-39.09c48.25-76.59,216.64-30.08,185.99,87.52c-14.84,56.91,45.15,58.98,14.59,115.86L578.75,272.36z"/>
		<g>
			<g>
				<path class="st2" d="M616.1,172.32c0,0-5.09-5.94-0.31-9.71c0,0,3.49-2.11,6.33-1.94c0,0-4.03,6.76-2.73,7.43
					c1.3,0.67,3.95-7.85,3.95-7.85s7.94-0.77,10.49,0.46c0,0-6.79,5.55-5.36,5.88c1.43,0.33,8.76-5.12,8.76-5.12
					s7.39,1.26,6.99,5.76c-0.39,4.51-2.94,5.9-4.06,5.78c-1.12-0.12-7.66-2.62-7.81-1.7c-0.14,0.92,3.8,3.91,6.56,4.05
					c0,0-5.21,5.74-8.67,4.09c-3.46-1.66-3.76-4.29-5.92-5.27c-2.16-0.99-4-0.98-3.11,0.02c0.89,1.01,4.8,1.98,6.03,4.17
					c1.23,2.18,2.34,3.66-1.24,3.12c-3.58-0.54-9.4-3.16-9.66-6.16C616.1,172.32,616.1,172.32,616.1,172.32z"/>
				<g>
					<path class="st2" d="M640.6,167.35c0,0-20.07-0.77-24.5,4.97c0,0-0.98,2.94-4,5.61l-0.47,1.28c0,0,3.48-3.67,4.72-3.89
						C616.36,175.32,614.41,168.21,640.6,167.35z"/>
					<path class="st2" d="M612.11,177.93c0,0-4.31,3.19-4.61,8.88l0.78,0.07c0,0,1.38-5.89,3.86-8.19
						C614.63,176.38,612.11,177.93,612.11,177.93z"/>
				</g>
			</g>
			<g>
				<path class="st2" d="M598.31,164.85c0,0,8.1-4.53,4.32-10.69c0,0-3.02-3.78-6.26-4.75c0,0,1.73,9.18,0,9.39
					c-1.73,0.22-1.19-10.36-1.19-10.36s-8.53-4.1-11.87-3.78c0,0,5.29,8.96,3.56,8.74c-1.73-0.22-7.66-9.28-7.66-9.28
					s-8.74-1.62-10.15,3.56c-1.4,5.18,0.86,7.77,2.16,8.1c1.3,0.32,9.61,0.22,9.39,1.3c-0.22,1.08-5.83,2.81-8.96,1.84
					c0,0,3.45,8.53,7.99,8.1c4.53-0.43,5.94-3.24,8.74-3.45c2.81-0.22,4.86,0.54,3.45,1.3c-1.4,0.76-6.15,0.25-8.42,2.17
					c-2.27,1.93-4.1,3.11,0.11,3.98c4.21,0.86,11.77,0.32,13.28-2.91C598.31,164.85,598.31,164.85,598.31,164.85z"/>
				<g>
					<path class="st2" d="M573.05,149.31c0,0,22.67,7.34,25.26,15.54c0,0-0.11,3.67,2.16,7.88v1.62c0,0-2.37-5.51-3.67-6.26
						C596.8,168.09,601.87,160.96,573.05,149.31z"/>
					<path class="st2" d="M600.47,172.73c0,0,3.5,5.31,1.5,11.77l-0.9-0.24c0,0,0.87-7.12-0.96-10.7
						C598.28,169.98,600.47,172.73,600.47,172.73z"/>
				</g>
			</g>
			<g>
				<path class="st3" d="M611.19,158.6c0,0-10.67-5.98-5.69-14.09c0,0,3.98-4.98,8.25-6.26c0,0-2.28,12.1,0,12.38
					c2.28,0.28,1.57-13.66,1.57-13.66s11.24-5.41,15.65-4.98c0,0-6.97,11.81-4.7,11.53c2.28-0.28,10.1-12.24,10.1-12.24
					s11.53-2.13,13.38,4.7s-1.14,10.25-2.85,10.67c-1.71,0.43-12.66,0.28-12.38,1.71c0.28,1.42,7.68,3.7,11.81,2.42
					c0,0-4.55,11.24-10.53,10.67c-5.98-0.57-7.83-4.27-11.53-4.55c-3.7-0.28-6.4,0.71-4.55,1.71c1.85,1,8.11,0.33,11.1,2.87
					c2.99,2.54,5.41,4.11-0.14,5.24c-5.55,1.14-15.51,0.43-17.5-3.84C611.19,158.6,611.19,158.6,611.19,158.6z"/>
				<g>
					<path class="st3" d="M644.48,138.11c0,0-29.88,9.68-33.3,20.49c0,0,0.14,4.84-2.85,10.39v2.13c0,0,3.13-7.26,4.84-8.25
						C613.18,162.87,606.49,153.47,644.48,138.11z"/>
					<path class="st3" d="M608.34,168.98c0,0-4.61,7-1.98,15.52l1.19-0.32c0,0-1.15-9.38,1.26-14.1
						C611.22,165.36,608.34,168.98,608.34,168.98z"/>
				</g>
			</g>
			<path class="st3" d="M610.83,202.97c11.55,0,20.91-9.36,20.91-20.91h-41.81C589.92,193.61,599.28,202.97,610.83,202.97z"/>
			<path class="st3" d="M632.02,204.04h-42.39v-0.33c0-1.24,1.01-2.25,2.25-2.25h37.9c1.24,0,2.25,1.01,2.25,2.25V204.04z"/>
			<rect x="589.24" y="182.07" class="st4" width="42.97" height="0.64"/>
		</g>
		<g>
			<g>
				<path class="st5" d="M718.7,271.93l0.1,0c0.84-0.02,1.5-0.71,1.42-1.5l-5.64-56.28l-4.92,0.44l8.09,56.58
					C717.82,271.61,718.23,271.94,718.7,271.93z"/>
			</g>
			<g>
				<path class="st5" d="M664.44,271.93l-0.1,0c-0.84-0.02-1.5-0.71-1.42-1.5l5.64-56.28l4.92,0.44l-8.09,56.58
					C665.31,271.61,664.91,271.94,664.44,271.93z"/>
			</g>
			<g>
				<path class="st5" d="M758.45,271.93l0.1,0c0.84-0.02,1.5-0.71,1.42-1.5l-5.64-56.28l-4.92,0.44l8.09,56.58
					C757.58,271.61,757.98,271.94,758.45,271.93z"/>
			</g>
			<path class="st5" d="M666.12,205.96l-10-49.4c-1.28-6.69,4.26-12.8,11.45-12.64l19.29,0.44c6.65,0.15,12.44,4.61,14.29,11
				l14.63,50.59H666.12z"/>
			<path class="st5" d="M672.17,205.96l-10-49.4c-1.28-6.69,4.26-12.8,11.45-12.64l19.29,0.44c6.65,0.15,12.44,4.61,14.29,11
				l14.63,50.59H672.17z"/>
			<path class="st5" d="M670.04,214.97h74.05c2.16,0,3.92-1.76,3.92-3.92v-1.16c0-2.16-1.77-3.92-3.92-3.92h-77.98v5.09
				C666.12,213.21,667.88,214.97,670.04,214.97z"/>
			<path class="st5" d="M706.4,214.97h45.3c2.16,0,3.92-1.77,3.92-3.92v-1.16c0-2.16-1.77-3.92-3.92-3.92h-45.3
				c-2.16,0-3.92,1.77-3.92,3.92v1.16C702.47,213.21,704.24,214.97,706.4,214.97z"/>
		</g>
		<g>
			<path class="st6" d="M643.34,205.32v1.69c0,0.59-0.19,1.07-0.42,1.07h-61.5c-0.23,0-0.42-0.48-0.42-1.07v-1.69
				c0-0.59,0.19-1.07,0.42-1.07h61.5C643.15,204.25,643.34,204.73,643.34,205.32z"/>
			<path class="st7" d="M643.34,205.32v1.69c0,0.59-0.18,1.07-0.39,1.07h-48.82c-0.21,0-0.39-0.48-0.39-1.07v-1.69
				c0-0.59,0.18-1.07,0.39-1.07h48.82C643.17,204.25,643.34,204.73,643.34,205.32z"/>
			<rect x="584.12" y="208.08" class="st2" width="43.66" height="63.64"/>
			<rect x="596.35" y="208.08" class="st8" width="43.66" height="63.64"/>
			<g>
				<g>
					<path class="st9" d="M637.67,268.2H598.7v-58.32h38.97V268.2z M599.12,267.78h38.13V210.3h-38.13V267.78z"/>
				</g>
				<g>
					<rect x="598.91" y="229.17" class="st9" width="38.55" height="0.42"/>
				</g>
				<g>
					<rect x="598.91" y="248.84" class="st9" width="38.55" height="0.42"/>
				</g>
				<path class="st9" d="M622.13,213.64h-7.15c-0.35,0-0.63-0.28-0.63-0.63l0,0c0-0.35,0.28-0.63,0.63-0.63h7.15
					c0.35,0,0.63,0.28,0.63,0.63l0,0C622.77,213.35,622.48,213.64,622.13,213.64z"/>
				<path class="st9" d="M622.13,232.87h-7.15c-0.35,0-0.63-0.28-0.63-0.63l0,0c0-0.35,0.28-0.63,0.63-0.63h7.15
					c0.35,0,0.63,0.28,0.63,0.63l0,0C622.77,232.59,622.48,232.87,622.13,232.87z"/>
				<path class="st9" d="M622.13,252.92h-7.15c-0.35,0-0.63-0.28-0.63-0.63l0,0c0-0.35,0.28-0.63,0.63-0.63h7.15
					c0.35,0,0.63,0.28,0.63,0.63l0,0C622.77,252.64,622.48,252.92,622.13,252.92z"/>
			</g>
		</g>
		<g>
			<path class="st10" d="M803.41,93.66h-5.01c-7.5,0-13.64-6.14-13.64-13.64v-4.05c0-7.5,6.14-13.64,13.64-13.64h5.01
				c7.5,0,13.64,6.14,13.64,13.64v4.05C817.05,87.52,810.91,93.66,803.41,93.66z"/>
			<path class="st8" d="M803.19,92.3h-4.58c-6.85,0-12.46-5.61-12.46-12.46v-3.7c0-6.85,5.61-12.46,12.46-12.46h4.58
				c6.85,0,12.46,5.61,12.46,12.46v3.7C815.65,86.7,810.04,92.3,803.19,92.3z"/>
			<g>
				<g>
					<circle class="st9" cx="800.9" cy="66.55" r="0.67"/>
					<path class="st9" d="M805.63,67.49c0.18-0.32,0.59-0.44,0.91-0.26c0.32,0.18,0.44,0.59,0.26,0.91
						c-0.18,0.32-0.59,0.44-0.91,0.26C805.57,68.22,805.45,67.82,805.63,67.49z"/>
					<path class="st9" d="M810.25,71.17c0.31-0.2,0.72-0.11,0.92,0.2c0.2,0.31,0.11,0.72-0.2,0.92c-0.31,0.2-0.72,0.11-0.92-0.2
						C809.85,71.78,809.94,71.37,810.25,71.17z"/>
					<path class="st9" d="M812.54,76.85c0.37,0,0.67,0.3,0.67,0.67c0,0.37-0.3,0.67-0.67,0.67c-0.37,0-0.67-0.3-0.67-0.67
						C811.87,77.15,812.17,76.85,812.54,76.85z"/>
					<path class="st9" d="M811.37,83.45c0.26,0.26,0.26,0.68,0,0.95c-0.26,0.26-0.68,0.26-0.95,0c-0.26-0.26-0.26-0.68,0-0.95
						C810.69,83.19,811.11,83.19,811.37,83.45z"/>
					<path class="st9" d="M807.17,87.67c0.26,0.26,0.26,0.68,0,0.95c-0.26,0.26-0.68,0.26-0.95,0c-0.26-0.26-0.26-0.68,0-0.95
						C806.49,87.4,806.91,87.4,807.17,87.67z"/>
					<path class="st9" d="M800.23,89.84c0-0.37,0.3-0.67,0.67-0.67c0.37,0,0.67,0.3,0.67,0.67c0,0.37-0.3,0.67-0.67,0.67
						C800.53,90.51,800.23,90.21,800.23,89.84z"/>
				</g>
				<g>
					<path class="st9" d="M796.15,67.49c-0.18-0.32-0.59-0.44-0.91-0.26c-0.32,0.18-0.44,0.59-0.26,0.91
						c0.18,0.32,0.59,0.44,0.91,0.26C796.21,68.22,796.33,67.82,796.15,67.49z"/>
					<path class="st9" d="M791.53,71.17c-0.31-0.2-0.72-0.11-0.92,0.2c-0.2,0.31-0.11,0.72,0.2,0.92c0.31,0.2,0.72,0.11,0.92-0.2
						C791.93,71.78,791.84,71.37,791.53,71.17z"/>
					<path class="st9" d="M789.23,76.85c-0.37,0-0.67,0.3-0.67,0.67c0,0.37,0.3,0.67,0.67,0.67c0.37,0,0.67-0.3,0.67-0.67
						C789.9,77.15,789.6,76.85,789.23,76.85z"/>
					<path class="st9" d="M790.4,83.45c-0.26,0.26-0.26,0.68,0,0.95c0.26,0.26,0.68,0.26,0.95,0c0.26-0.26,0.26-0.68,0-0.95
						C791.09,83.19,790.67,83.19,790.4,83.45z"/>
					<path class="st9" d="M794.61,87.67c-0.26,0.26-0.26,0.68,0,0.95c0.26,0.26,0.68,0.26,0.95,0c0.26-0.26,0.26-0.68,0-0.95
						C795.29,87.4,794.87,87.4,794.61,87.67z"/>
				</g>
			</g>
			<g>
				<path class="st9" d="M800.72,77.52c0-0.37,0.3-0.67,0.67-0.67c0.37,0,0.67,0.3,0.67,0.67c0,0.37-0.3,0.67-0.67,0.67
					C801.02,78.19,800.72,77.89,800.72,77.52z"/>
				<g>
					<rect x="801.3" y="69.17" class="st9" width="0.18" height="8.36"/>
				</g>
				<g>
					
						<rect x="800.7" y="75.5" transform="matrix(0.7866 -0.6175 0.6175 0.7866 124.6893 512.3211)" class="st9" width="5.63" height="0.55"/>
				</g>
			</g>
		</g>
		<g>
			<g>
				<path class="st11" d="M732.6,195.63c-4.13,7.19-9.32,9.96-9.32,9.96h-21.61C701.68,205.59,735.75,190.14,732.6,195.63z"/>
				<g>
					<path class="st12" d="M759.25,267.02c-0.23,2.27,2.92,2.85,6.58,3.07c3.66,0.22,2.54,0.96,7.55,1.92c5,0.96,7.03-0.39,7.4-1.06
						c0.33-0.6-1.99-1.56-4.46-2.65c-0.31-0.14-0.62-0.28-0.93-0.42c-2.78-1.26-4.32-3.78-6.48-6.13c-2.04-2.22-3.93-9.3-3.93-9.3
						l-6.8-1.53c0,0,1.84,6.37,2.48,9.08c0.37,1.6-0.22,3.37-0.75,4.72C759.62,265.47,759.33,266.22,759.25,267.02z"/>
					<path class="st13" d="M765.83,270.1c3.66,0.22,2.54,0.96,7.55,1.92c5,0.96,7.03-0.39,7.4-1.06c0.33-0.6-1.99-1.56-4.46-2.65
						l-0.04,0.04c0,0-3.54,1.16-7.6,0.01c-3.31-0.94-6.49-2.95-8.77-3.62c-0.28,0.73-0.57,1.49-0.65,2.29
						C759.02,269.29,762.17,269.87,765.83,270.1z"/>
					<path class="st11" d="M748.95,188.27c-3.66-2.57-27.85-7.15-40.2-8.47l-13.65-11.85c0,0-11.62,17.21-11.71,30.37
						c-0.04,6.14,2.78,6.75,2.78,6.75c0,0,43.75,0.32,45.67,0.52c3.14,0.32,7.28,8.14,8.31,15.27c1.03,7.12,19.28,36.09,19.28,36.09
						s3.8,1.22,5.56,1.12c1.89-0.11,2.77-0.74,2.77-0.74S757.2,194.06,748.95,188.27z"/>
					<path class="st12" d="M747.94,267.02c-0.23,2.27,2.92,2.85,6.58,3.07c3.66,0.22,2.54,0.96,7.55,1.92c5,0.96,7.03-0.39,7.4-1.06
						c0.33-0.6-1.99-1.56-4.46-2.65c-0.31-0.14-0.62-0.28-0.93-0.42c-2.78-1.26-4.32-3.78-6.48-6.13c-2.04-2.22-3.93-9.3-3.93-9.3
						l-6.8-1.53c0,0,1.85,6.37,2.48,9.08c0.37,1.6-0.22,3.37-0.75,4.72C748.3,265.47,748.02,266.22,747.94,267.02z"/>
					<path class="st11" d="M754.51,270.1c3.66,0.22,2.54,0.96,7.55,1.92c5,0.96,7.03-0.39,7.4-1.06c0.33-0.6-1.99-1.56-4.46-2.65
						l-0.04,0.04c0,0-3.54,1.16-7.6,0.01c-3.31-0.94-6.49-2.95-8.77-3.62c-0.28,0.73-0.57,1.49-0.65,2.29
						C747.7,269.29,750.85,269.87,754.51,270.1z"/>
					<path class="st14" d="M737.54,188.27c-3.18-2.23-12.74-3.96-23.29-5.25c-2.92-0.35-5.31-2.48-6.02-5.33l0,0l-24.54-9.75
						c0,0-11.62,17.21-11.71,30.37c-0.04,6.14,2.78,6.75,2.78,6.75c0,0,43.75,0.32,45.67,0.52c3.14,0.32,7.28,8.14,8.31,15.27
						c1.03,7.12,19.28,36.09,19.28,36.09s3.8,1.22,5.56,1.12c1.89-0.11,2.77-0.74,2.77-0.74S745.79,194.06,737.54,188.27z"/>
					<path class="st11" d="M704.7,96.46c-3.37-1.77-8.5-2.01-9.34-2.12c-9.98-1.34-15.98,13.15-16.33,17.55
						c-0.65,8.1-4.93,9.33-10.96,14.4c-12.09,10.17-8.54,21.98-1.93,26.37c3.97,2.63,10.96,0,10.96,0
						c0.1,0.07,19.12-10.63,28.49-15.79C719.63,134.86,713.29,100.97,704.7,96.46z"/>
					<path class="st12" d="M702.62,131.87c0.04,0.02-4.43,2.06-7.66,0.99c-3.04-1-5.72-5.58-5.67-5.58
						c1.32-0.19,2.66-1.49,3.03-9.21l0.58,0.15l9.82,2.48c0,0-0.39,3.11-0.55,6.05C702.04,129.23,702.07,131.58,702.62,131.87z"/>
					<path class="st15" d="M702.72,120.7c0,0,0,0.64-0.37,3.54c-5.56-1.4-8.01-3.24-9.73-5.35L702.72,120.7z"/>
					<path class="st12" d="M704.82,121.09c0,0-12.99,2.11-14.18-5.99c-1.19-8.11-3.67-13.3,4.57-14.99
						c8.24-1.69,10.31,1.16,11.37,3.77C707.63,106.49,708.17,120.33,704.82,121.09z"/>
					<path class="st11" d="M704.83,99.77c0,0-5.9,9.31-11.17,11.52c-5.27,2.21-7.85,1.09-7.85,1.09s2.4-3.63,3.02-8.51
						c0.18-1.44,1.12-2.67,2.47-3.21C695.08,99.14,702.39,96.75,704.83,99.77z"/>
					<path class="st11" d="M699.65,100.67c0,0,3.46,1.77,4.88,3.43c1.37,1.6,2.96,5.95,2.85,7.91c0,0,1.71-9.36-1.85-12.58
						C701.76,96.01,699.65,100.67,699.65,100.67z"/>
					<path class="st0" d="M713.01,151.68c-0.39,26.4-0.11,20.89-3,23.39c-0.7,0.6-2.65,0.96-5.23,1.13
						c-8.1,0.54-22.33-0.8-22.87-2.29c-1.87-5.18-0.55-6.79-2.11-14.71c-0.16-0.84-0.36-1.76-0.6-2.75
						c-1.3-5.44-2.56-7.3,2.05-16.04c4.18-7.92,9.09-14.36,9.49-14.13c11.03,6.55,11.4,1.06,11.4,1.06S713.2,138.8,713.01,151.68z"
						/>
					<path class="st0" d="M702.15,127.34c0,0,11.29,1.91,12.62,6.8c1.33,4.89,9.17,33.61,9.17,33.61s-5.77,1.04-8.43-1.63
						c-2.66-2.66-9.27-24.72-9.27-24.72L702.15,127.34z"/>
					<path class="st16" d="M704.79,176.21c-8.1,0.54-22.33-0.8-22.87-2.29c-1.87-5.18-0.55-6.79-2.11-14.71l3.91-11
						c0,0-0.65,12.25,2.97,15.47c3.61,3.22,14.79,6.22,16.54,8.91C704.07,173.87,704.62,175.17,704.79,176.21z"/>
					<path class="st12" d="M695.51,171.06c0,0,7.99-1.78,9.28-1.07c1.29,0.71,4.44,3.29,4.83,4.19c0.39,0.9-2.87-0.68-3.93-0.97
						c-0.69-0.18-2.5,0.44-3.39,0.74c-3.77,1.26-6.08,0.61-6.08,0.61L695.51,171.06z"/>
					<path class="st0" d="M690.74,126.29c0,0-11.3,0.66-15.02,5.84c-5.23,7.29-15.59,38.36-9.65,42.5
						c6.69,4.67,30.46,1.22,30.46,1.22s0.79-3.7-0.31-5.48c-1.1-1.79-18.98-4.68-19.81-5.5c-0.83-0.83,10.32-16.09,10.32-18.57
						C686.73,143.82,690.74,126.29,690.74,126.29z"/>
					<path class="st12" d="M705.17,172.21c0,0,1.67,2.16,2.22,2.42c0.55,0.26,0.9,0.19,0.9,0.19l-1.13-2.03L705.17,172.21z"/>
					<path class="st12" d="M704.79,169.99l4.87,2.36c0,0-0.21,0.34-0.81,0.31c-0.6-0.03-2.11-0.58-2.11-0.58L704.79,169.99z"/>
				</g>
			</g>
		</g>
		<g>
			<path class="st17" d="M722.71,175.59h-22.6l0,0c0-0.99,0.81-1.8,1.8-1.8h20.8V175.59z"/>
			<polygon class="st17" points="722.65,150.98 757.59,150.98 749.21,175.59 714.04,175.59 			"/>
			<polygon class="st18" points="758.1,150.98 749.72,175.59 714.55,175.59 723.16,150.98 			"/>
			<path class="st0" d="M739.26,163.06c-0.22,0.94-1.16,1.7-2.1,1.7s-1.53-0.76-1.31-1.7c0.22-0.94,1.16-1.7,2.1-1.7
				C738.89,161.35,739.48,162.12,739.26,163.06z"/>
		</g>
		<g>
			<path class="st19" d="M693.55,181.13h150.63c1.33,0,2.41-1.08,2.41-2.41V178c0-1.33-1.08-2.41-2.41-2.41H693.55
				c-1.33,0-2.41,1.08-2.41,2.41v0.72C691.13,180.05,692.21,181.13,693.55,181.13z"/>
			<g>
				<path class="st19" d="M849.17,272.34l0.07-0.01c0.78-0.1,1.34-0.8,1.24-1.56l-13.64-92.36l-5,0.14l16.05,92.86
					C847.99,272.01,848.56,272.42,849.17,272.34z"/>
			</g>
			<g>
				<path class="st19" d="M687.17,272.34l-0.07-0.01c-0.78-0.1-1.34-0.8-1.24-1.56l13.64-92.36l5,0.14l-16.05,92.86
					C688.35,272.01,687.79,272.42,687.17,272.34z"/>
			</g>
			<g>
				<path class="st19" d="M718.76,272.34l-0.07-0.01c-0.78-0.1-1.34-0.8-1.24-1.56l13.64-92.36l5,0.14l-16.05,92.86
					C719.94,272.01,719.37,272.42,718.76,272.34z"/>
			</g>
		</g>
		<path class="st20" d="M970.67,273.1H546.87c-0.39,0-0.71-0.32-0.71-0.71v-0.21c0-0.39,0.32-0.71,0.71-0.71h423.81
			c0.39,0,0.71,0.32,0.71,0.71v0.21C971.39,272.78,971.07,273.1,970.67,273.1z"/>
		<g>
			<path class="st11" d="M799.26,272.27h27.08c1.3-1.59,0.82-7.45,0.63-9.37c-0.04-0.39-0.07-0.61-0.07-0.61s-9.25-7.4-10.52-1.73
				c-0.04,0.18-0.09,0.35-0.14,0.52c-1.6,5.3-8.78,7.7-12.92,8.37C800.63,269.89,799.63,271.29,799.26,272.27z"/>
			<path class="st11" d="M873.14,184.29c-0.98,0-46.38,8.52-53.89,17.82c-3.75,4.64-4.31,58.28-4.31,58.28s4.64,5.75,14.67,2.41
				c0,0,7.35-36.7,6.81-47.83c-0.15-3.08,31.02-0.45,36.73-1.92s19.65-13.89,16.57-19.93C886.64,187.07,873.14,184.29,873.14,184.29
				z"/>
			<path class="st12" d="M819.45,171.15c0,0-9.16,0.12-11.32,1.05s-6.56,3.06-5.38,3.39c1.18,0.33,6.79-0.13,8,0.05
				c1.21,0.19,2.71-0.05,3.45-0.05c0.74,0,4.21,0,4.21,0L819.45,171.15z"/>
			<path class="st12" d="M808.74,149.17c0,0-3.12-2.23-6.15-2.66c-1.73-0.25-3.41-0.56-4.43-0.91c-2.8-0.99-8.4-6.02-7.97-6.61
				c1.36-1.89,7.89,2.11,9.03,1.68c1.14-0.43-2.19-2.8-1.03-3.63c0.61-0.44,2.02,1.75,3.18,1.97c1.57,0.3,2.79,2.51,3.26,2.62
				c0.92,0.22,4.94,3.22,4.94,3.22L808.74,149.17z"/>
			<path class="st17" d="M868.62,123.12c0,0-6.97,2.16-13.84,21.08c-6.87,18.91-9.48,19.94-11.97,20.68
				c-2.5,0.74-24.41,5.11-24.41,5.11v5.61h33.77c0,0,12.66-12.04,16.46-20.15C872.42,147.33,868.62,123.12,868.62,123.12z"/>
			<path class="st21" d="M787.29,272.27h27.08c1.3-1.59,0.82-7.45,0.63-9.37c-0.04-0.39-0.07-0.61-0.07-0.61s-9.25-7.4-10.52-1.73
				c-0.04,0.18-0.09,0.35-0.14,0.52c-1.6,5.3-8.78,7.7-12.92,8.37C788.66,269.89,787.66,271.29,787.29,272.27z"/>
			<path class="st14" d="M859.76,184.29c-0.98,0-46.38,8.52-53.89,17.82c-3.75,4.64-4.31,58.28-4.31,58.28s4.64,5.75,14.67,2.41
				c0,0,7.35-36.7,6.81-47.83c-0.15-3.08,31.02-0.45,36.73-1.92c5.71-1.48,19.65-13.89,16.57-19.93
				C873.27,187.07,859.76,184.29,859.76,184.29z"/>
			<path class="st12" d="M862.6,129.11c3.27-0.27,6.69-1.14,9.65-2.1c3.7-1.2,6.68-2.96,4.76-6.34c-1.77-3.12-4.64-10.08-4.44-15.85
				l-6.88,5.55l-4.68,3.77c0,0,0.02,2.22,0.53,6.12c0.09,0.71,0.2,1.48,0.33,2.29c0.1,0.66-0.2,1.32-0.77,1.67
				c-0.04,0.02-0.07,0.04-0.11,0.07C858.67,125.75,859.87,129.34,862.6,129.11z"/>
			<path class="st15" d="M861.01,113.23c0,0-0.24,0.81,0.17,3.79c4.17-0.68,8.07-4.01,8.07-4.01c-2.12-0.58-2.89-2.88-4.48-2.66
				L861.01,113.23z"/>
			<path class="st12" d="M857.15,113.91c0,0,16.04,2.66,17.54-7.35c1.51-10.01,4.59-16.41-5.59-18.54
				c-10.18-2.12-12.74,1.4-14.06,4.62C853.73,95.86,853.02,112.95,857.15,113.91z"/>
			<path class="st14" d="M852.69,88.21c-0.69,2.41,1.15,5.35,4.25,6.31c4.59,1.44,3.58,7.07,5.64,6.99c2.07-0.08,2.9-3.24,4.75-0.71
				c1.57,2.15-1.31,4.71-1.11,5.89c0.34,2.03,3.52,6.18,6.38,5.97c2.86-0.21,8.22-13.82,7.15-18.03c-1.07-4.21-5.36-8.65-9.41-9.26
				c-4.06-0.61-9.69,1.14-10.99,1.14C858.04,86.51,853.06,86.9,852.69,88.21z"/>
			<path class="st18" d="M889.93,137.01c-2.32-9.33-8.72-19.12-13.06-19.11c-7.38,0.01-17.99,1.96-22.28,12.53
				c-3.16,7.78-7.36,52.56-2.61,55.75c10.87,7.28,36.08,22.14,40.56,6.99C896.65,179.28,893.95,153.21,889.93,137.01z"/>
			<path class="st18" d="M872,127.73c-2.11-5.48-8.9-7.37-13.53-3.77c-2.51,1.95-5.57,4.72-9.28,8.67
				c-13.78,14.67-16.58,14.58-19.16,14.28c-2.59-0.3-24.45-4.94-24.45-4.94s-1.12,0.83-1.78,2.16c-0.88,1.78-0.44,3-0.44,3
				c-0.86-0.55,7.75,5.38,12.03,7.74c5.66,3.12,14.18,6.05,17.57,7.16c0.96,0.32,2,0.3,2.95-0.04c5.04-1.82,21.96-8.43,35.73-19.92
				C875.29,139.04,873.95,132.81,872,127.73z"/>
			<path class="st0" d="M877.62,117.99l-1.67-3.76c0,0-14.96,1.22-17.47,9.73C858.47,123.96,870.07,118.17,877.62,117.99z"/>
		</g>
		<g>
			<g>
				<path class="st5" d="M913.94,271.93l0.1,0c0.84-0.02,1.5-0.71,1.42-1.5l-5.64-56.28l-4.92,0.44l8.09,56.58
					C913.06,271.61,913.46,271.94,913.94,271.93z"/>
			</g>
			<g>
				<path class="st5" d="M884.93,271.93l0.1,0c0.84-0.02,1.5-0.71,1.42-1.5l-5.63-56.28l-4.92,0.44l8.09,56.58
					C884.05,271.61,884.46,271.94,884.93,271.93z"/>
			</g>
			<g>
				<path class="st22" d="M830.48,271.93l-0.1,0c-0.84-0.02-1.5-0.71-1.42-1.5l5.64-56.28l4.92,0.44l-8.09,56.58
					C831.36,271.61,830.95,271.94,830.48,271.93z"/>
			</g>
			<path class="st5" d="M912.34,206.18l5.35-47c0.7-6.77-1.57-13.41-11.34-13.92l-17.2-1.05c-10.19-0.42-14.79,8.06-16.08,14.59
				l-10.21,51.67L912.34,206.18z"/>
			<path class="st22" d="M908.34,214.97h-74.05c-2.16,0-3.92-1.77-3.92-3.92v-1.16c0-2.16,1.77-3.92,3.92-3.92h77.98v5.09
				C912.26,213.21,910.49,214.97,908.34,214.97z"/>
			<path class="st5" d="M908.34,214.97h-41.55c-2.16,0-3.92-1.77-3.92-3.92v-1.16c0-2.16,1.76-3.92,3.92-3.92h45.47v5.09
				C912.26,213.21,910.49,214.97,908.34,214.97z"/>
		</g>
	</g>
	<g>
		<g>
			<g>
				<path class="st23" d="M45.09,186.14c-1.78-0.97-3.18-2.31-4.19-4.02c-1.01-1.71-1.52-3.64-1.52-5.78c0-2.15,0.51-4.07,1.53-5.78
					c1.02-1.71,2.42-3.05,4.21-4.02c1.78-0.97,3.78-1.45,5.99-1.45c1.79,0,3.43,0.31,4.91,0.94c1.48,0.63,2.73,1.53,3.75,2.72
					l-2.63,2.47c-1.58-1.71-3.53-2.56-5.85-2.56c-1.5,0-2.84,0.33-4.03,0.98c-1.19,0.66-2.12,1.57-2.78,2.74
					c-0.67,1.17-1,2.49-1,3.97s0.33,2.8,1,3.97c0.67,1.17,1.59,2.08,2.78,2.74s2.53,0.98,4.03,0.98c2.31,0,4.26-0.86,5.85-2.59
					l2.63,2.5c-1.02,1.19-2.28,2.09-3.77,2.72c-1.49,0.63-3.13,0.94-4.92,0.94C48.87,187.59,46.88,187.1,45.09,186.14z"/>
				<path class="st23" d="M65.62,186.4c-1.35-0.73-2.41-1.75-3.17-3.05c-0.76-1.3-1.14-2.78-1.14-4.42c0-1.65,0.38-3.12,1.14-4.41
					c0.76-1.29,1.82-2.3,3.17-3.03c1.35-0.73,2.88-1.09,4.56-1.09c1.71,0,3.24,0.37,4.6,1.09c1.35,0.73,2.41,1.74,3.17,3.03
					c0.76,1.29,1.14,2.76,1.14,4.41c0,1.65-0.38,3.12-1.14,4.42c-0.76,1.3-1.82,2.32-3.17,3.05c-1.36,0.73-2.89,1.09-4.6,1.09
					C68.5,187.5,66.97,187.13,65.62,186.4z M73.75,182.71c0.94-0.96,1.41-2.22,1.41-3.78c0-1.56-0.47-2.82-1.41-3.78
					c-0.94-0.96-2.13-1.44-3.56-1.44c-1.44,0-2.62,0.48-3.55,1.44c-0.93,0.96-1.39,2.22-1.39,3.78c0,1.56,0.46,2.82,1.39,3.78
					c0.93,0.96,2.11,1.44,3.55,1.44C71.62,184.15,72.81,183.67,73.75,182.71z"/>
				<path class="st23" d="M108.92,172.22c1.23,1.22,1.84,3.05,1.84,5.49v9.57h-3.91v-9.07c0-1.46-0.32-2.56-0.97-3.3
					c-0.65-0.74-1.57-1.11-2.78-1.11c-1.31,0-2.37,0.43-3.16,1.3s-1.19,2.1-1.19,3.7v8.47h-3.91v-9.07c0-1.46-0.32-2.56-0.97-3.3
					c-0.65-0.74-1.57-1.11-2.78-1.11c-1.33,0-2.39,0.43-3.17,1.28s-1.17,2.09-1.17,3.72v8.47h-3.91v-16.7h3.72v2.13
					c0.62-0.75,1.41-1.32,2.34-1.72s1.98-0.59,3.13-0.59c1.25,0,2.36,0.23,3.33,0.7c0.97,0.47,1.74,1.16,2.3,2.08
					c0.69-0.88,1.57-1.56,2.66-2.05c1.08-0.49,2.28-0.73,3.6-0.73C106.02,170.39,107.69,171,108.92,172.22z"/>
				<path class="st23" d="M129.38,171.46c1.28,0.71,2.29,1.71,3.02,3c0.73,1.29,1.09,2.78,1.09,4.47c0,1.69-0.36,3.18-1.09,4.49
					c-0.73,1.3-1.74,2.31-3.02,3.02c-1.28,0.71-2.74,1.06-4.36,1.06c-2.25,0-4.03-0.75-5.35-2.25v8.1h-3.91v-22.76h3.72v2.19
					c0.65-0.79,1.44-1.39,2.39-1.78c0.95-0.4,2-0.59,3.14-0.59C126.65,170.39,128.1,170.75,129.38,171.46z M128.13,182.71
					c0.93-0.96,1.39-2.22,1.39-3.78c0-1.56-0.46-2.82-1.39-3.78c-0.93-0.96-2.11-1.44-3.55-1.44c-0.94,0-1.78,0.21-2.53,0.64
					c-0.75,0.43-1.34,1.04-1.78,1.83c-0.44,0.79-0.66,1.71-0.66,2.75c0,1.04,0.22,1.96,0.66,2.75c0.44,0.79,1.03,1.4,1.78,1.83
					c0.75,0.43,1.59,0.64,2.53,0.64C126.02,184.15,127.2,183.67,128.13,182.71z"/>
				<path class="st23" d="M146.87,170.39v3.72c-0.33-0.06-0.64-0.09-0.91-0.09c-1.52,0-2.71,0.44-3.56,1.33
					c-0.85,0.89-1.28,2.16-1.28,3.83v8.1h-3.91v-16.7h3.72v2.44C142.06,171.27,144.04,170.39,146.87,170.39z"/>
				<path class="st23" d="M165.66,180.18h-13.1c0.23,1.23,0.83,2.2,1.8,2.92c0.97,0.72,2.17,1.08,3.61,1.08
					c1.83,0,3.35-0.6,4.53-1.81l2.09,2.41c-0.75,0.9-1.7,1.57-2.85,2.03c-1.15,0.46-2.44,0.69-3.88,0.69
					c-1.83,0-3.45-0.36-4.85-1.09c-1.4-0.73-2.48-1.75-3.24-3.05c-0.76-1.3-1.14-2.78-1.14-4.42c0-1.63,0.37-3.09,1.11-4.39
					c0.74-1.3,1.77-2.32,3.08-3.05c1.31-0.73,2.79-1.09,4.44-1.09c1.63,0,3.08,0.36,4.36,1.08c1.28,0.72,2.28,1.73,3,3.03
					c0.72,1.3,1.08,2.81,1.08,4.52C165.73,179.29,165.71,179.68,165.66,180.18z M154.11,174.63c-0.87,0.74-1.39,1.73-1.58,2.95h9.47
					c-0.17-1.21-0.68-2.19-1.53-2.94c-0.85-0.75-1.92-1.13-3.19-1.13C156.03,173.52,154.98,173.89,154.11,174.63z"/>
				<path class="st23" d="M184.02,172.24c1.27,1.23,1.91,3.05,1.91,5.47v9.57h-3.91v-9.07c0-1.46-0.34-2.56-1.03-3.3
					c-0.69-0.74-1.67-1.11-2.94-1.11c-1.44,0-2.57,0.43-3.41,1.3c-0.83,0.86-1.25,2.11-1.25,3.74v8.44h-3.91v-23.2h3.91v8.44
					c0.65-0.69,1.44-1.21,2.39-1.58c0.95-0.36,2.01-0.55,3.17-0.55C181.06,170.39,182.74,171.01,184.02,172.24z"/>
				<path class="st23" d="M206.68,180.18h-13.1c0.23,1.23,0.83,2.2,1.8,2.92c0.97,0.72,2.17,1.08,3.61,1.08
					c1.83,0,3.35-0.6,4.53-1.81l2.09,2.41c-0.75,0.9-1.7,1.57-2.85,2.03c-1.15,0.46-2.44,0.69-3.88,0.69
					c-1.83,0-3.45-0.36-4.85-1.09c-1.4-0.73-2.48-1.75-3.24-3.05c-0.76-1.3-1.14-2.78-1.14-4.42c0-1.63,0.37-3.09,1.11-4.39
					c0.74-1.3,1.77-2.32,3.08-3.05c1.31-0.73,2.79-1.09,4.44-1.09c1.63,0,3.08,0.36,4.36,1.08c1.28,0.72,2.28,1.73,3,3.03
					c0.72,1.3,1.08,2.81,1.08,4.52C206.74,179.29,206.72,179.68,206.68,180.18z M195.13,174.63c-0.87,0.74-1.39,1.73-1.58,2.95h9.47
					c-0.17-1.21-0.68-2.19-1.53-2.94c-0.85-0.75-1.92-1.13-3.19-1.13C197.05,173.52,195.99,173.89,195.13,174.63z"/>
				<path class="st23" d="M225.03,172.24c1.27,1.23,1.91,3.05,1.91,5.47v9.57h-3.91v-9.07c0-1.46-0.34-2.56-1.03-3.3
					c-0.69-0.74-1.67-1.11-2.94-1.11c-1.44,0-2.57,0.43-3.41,1.3c-0.83,0.86-1.25,2.11-1.25,3.74v8.44h-3.91v-16.7h3.72v2.16
					c0.65-0.77,1.46-1.35,2.44-1.75c0.98-0.4,2.08-0.59,3.31-0.59C222.07,170.39,223.76,171.01,225.03,172.24z"/>
				<path class="st23" d="M233.1,186.96c-1.29-0.35-2.32-0.8-3.09-1.34l1.5-2.97c0.75,0.5,1.65,0.9,2.7,1.2
					c1.05,0.3,2.09,0.45,3.11,0.45c2.33,0,3.5-0.61,3.5-1.84c0-0.58-0.3-0.99-0.89-1.22c-0.59-0.23-1.55-0.45-2.86-0.66
					c-1.38-0.21-2.5-0.45-3.36-0.72c-0.87-0.27-1.62-0.75-2.25-1.42c-0.64-0.68-0.95-1.62-0.95-2.83c0-1.58,0.66-2.85,1.99-3.8
					c1.32-0.95,3.11-1.42,5.36-1.42c1.15,0,2.29,0.13,3.44,0.39c1.15,0.26,2.08,0.61,2.81,1.05l-1.5,2.97
					c-1.42-0.83-3.01-1.25-4.78-1.25c-1.15,0-2.02,0.17-2.61,0.52c-0.59,0.34-0.89,0.8-0.89,1.36c0,0.63,0.32,1.07,0.95,1.33
					c0.64,0.26,1.62,0.51,2.95,0.73c1.33,0.21,2.43,0.45,3.28,0.72s1.59,0.73,2.2,1.38s0.92,1.56,0.92,2.75
					c0,1.56-0.68,2.81-2.03,3.75s-3.2,1.41-5.53,1.41C235.72,187.5,234.39,187.32,233.1,186.96z"/>
				<path class="st23" d="M248.2,167.16c-0.48-0.45-0.72-1.01-0.72-1.67s0.24-1.22,0.72-1.67c0.48-0.45,1.07-0.67,1.78-0.67
					s1.3,0.21,1.78,0.64c0.48,0.43,0.72,0.96,0.72,1.61c0,0.69-0.23,1.27-0.7,1.73c-0.47,0.47-1.07,0.7-1.8,0.7
					C249.27,167.83,248.68,167.61,248.2,167.16z M248.01,170.58h3.91v16.7h-3.91V170.58z"/>
				<path class="st23" d="M272.68,170.58l-7.16,16.7h-4.03l-7.16-16.7h4.06l5.19,12.38l5.35-12.38H272.68z"/>
				<path class="st23" d="M290.28,180.18h-13.1c0.23,1.23,0.83,2.2,1.8,2.92c0.97,0.72,2.17,1.08,3.61,1.08
					c1.83,0,3.35-0.6,4.53-1.81l2.09,2.41c-0.75,0.9-1.7,1.57-2.85,2.03c-1.15,0.46-2.44,0.69-3.88,0.69
					c-1.83,0-3.45-0.36-4.85-1.09c-1.4-0.73-2.48-1.75-3.24-3.05c-0.76-1.3-1.14-2.78-1.14-4.42c0-1.63,0.37-3.09,1.11-4.39
					c0.74-1.3,1.77-2.32,3.08-3.05c1.31-0.73,2.79-1.09,4.44-1.09c1.63,0,3.08,0.36,4.36,1.08c1.28,0.72,2.28,1.73,3,3.03
					c0.72,1.3,1.08,2.81,1.08,4.52C290.34,179.29,290.32,179.68,290.28,180.18z M278.73,174.63c-0.87,0.74-1.39,1.73-1.58,2.95h9.47
					c-0.17-1.21-0.68-2.19-1.53-2.94c-0.85-0.75-1.92-1.13-3.19-1.13C280.65,173.52,279.59,173.89,278.73,174.63z"/>
				<path class="st23" d="M314.75,172.16c1.3,1.18,1.95,2.95,1.95,5.33v9.79h-3.69v-2.03c-0.48,0.73-1.16,1.29-2.05,1.67
					c-0.89,0.39-1.95,0.58-3.2,0.58s-2.34-0.21-3.28-0.64c-0.94-0.43-1.66-1.02-2.17-1.78c-0.51-0.76-0.77-1.62-0.77-2.58
					c0-1.5,0.56-2.7,1.67-3.61c1.11-0.91,2.87-1.36,5.27-1.36h4.31v-0.25c0-1.17-0.35-2.06-1.05-2.69c-0.7-0.62-1.74-0.94-3.11-0.94
					c-0.94,0-1.86,0.15-2.77,0.44s-1.67,0.7-2.3,1.22l-1.53-2.85c0.88-0.67,1.93-1.18,3.16-1.53c1.23-0.35,2.53-0.53,3.91-0.53
					C311.56,170.39,313.44,170.98,314.75,172.16z M311.18,183.98c0.76-0.45,1.3-1.09,1.61-1.92v-1.94h-4.03
					c-2.25,0-3.38,0.74-3.38,2.22c0,0.71,0.28,1.27,0.84,1.69c0.56,0.42,1.34,0.63,2.34,0.63
					C309.55,184.65,310.42,184.43,311.18,183.98z"/>
				<path class="st23" d="M336.24,172.24c1.27,1.23,1.91,3.05,1.91,5.47v9.57h-3.91v-9.07c0-1.46-0.34-2.56-1.03-3.3
					c-0.69-0.74-1.67-1.11-2.94-1.11c-1.44,0-2.57,0.43-3.41,1.3c-0.83,0.86-1.25,2.11-1.25,3.74v8.44h-3.91v-16.7h3.72v2.16
					c0.65-0.77,1.46-1.35,2.44-1.75c0.98-0.4,2.08-0.59,3.31-0.59C333.28,170.39,334.97,171.01,336.24,172.24z"/>
				<path class="st23" d="M359.62,164.08v23.2h-3.75v-2.16c-0.65,0.79-1.44,1.39-2.39,1.78c-0.95,0.4-2,0.59-3.14,0.59
					c-1.61,0-3.05-0.35-4.33-1.06c-1.28-0.71-2.29-1.71-3.02-3.02c-0.73-1.3-1.09-2.8-1.09-4.49c0-1.69,0.36-3.18,1.09-4.47
					c0.73-1.29,1.74-2.29,3.02-3c1.28-0.71,2.72-1.06,4.33-1.06c1.1,0,2.12,0.19,3.03,0.56c0.92,0.38,1.7,0.94,2.34,1.69v-8.57
					H359.62z M353.34,183.51c0.75-0.43,1.34-1.04,1.78-1.83c0.44-0.79,0.66-1.71,0.66-2.75c0-1.04-0.22-1.96-0.66-2.75
					c-0.44-0.79-1.03-1.4-1.78-1.83c-0.75-0.43-1.59-0.64-2.53-0.64c-0.94,0-1.78,0.21-2.53,0.64c-0.75,0.43-1.34,1.04-1.78,1.83
					c-0.44,0.79-0.66,1.71-0.66,2.75c0,1.04,0.22,1.96,0.66,2.75c0.44,0.79,1.03,1.4,1.78,1.83c0.75,0.43,1.59,0.64,2.53,0.64
					C351.75,184.15,352.59,183.94,353.34,183.51z"/>
				<path class="st23" d="M389.01,180.18h-13.1c0.23,1.23,0.83,2.2,1.8,2.92c0.97,0.72,2.17,1.08,3.61,1.08
					c1.83,0,3.35-0.6,4.53-1.81l2.09,2.41c-0.75,0.9-1.7,1.57-2.85,2.03c-1.15,0.46-2.44,0.69-3.88,0.69
					c-1.83,0-3.45-0.36-4.85-1.09c-1.4-0.73-2.48-1.75-3.24-3.05c-0.76-1.3-1.14-2.78-1.14-4.42c0-1.63,0.37-3.09,1.11-4.39
					c0.74-1.3,1.77-2.32,3.08-3.05c1.31-0.73,2.79-1.09,4.44-1.09c1.63,0,3.08,0.36,4.36,1.08c1.28,0.72,2.28,1.73,3,3.03
					c0.72,1.3,1.08,2.81,1.08,4.52C389.07,179.29,389.05,179.68,389.01,180.18z M377.46,174.63c-0.87,0.74-1.39,1.73-1.58,2.95h9.47
					c-0.17-1.21-0.68-2.19-1.53-2.94c-0.85-0.75-1.92-1.13-3.19-1.13C379.38,173.52,378.32,173.89,377.46,174.63z"/>
				<path class="st23" d="M397.14,169.71v1h4.6v3.13h-4.47v13.44h-3.91v-13.44h-2.75v-3.13h2.75v-1.06c0-1.79,0.52-3.2,1.56-4.24
					c1.04-1.03,2.51-1.55,4.41-1.55c1.5,0,2.68,0.3,3.53,0.91l-1.09,2.94c-0.67-0.46-1.39-0.69-2.16-0.69
					C397.96,167.02,397.14,167.91,397.14,169.71z"/>
				<path class="st23" d="M408.68,169.71v1h4.6v3.13h-4.47v13.44h-3.91v-13.44h-2.75v-3.13h2.75v-1.06c0-1.79,0.52-3.2,1.56-4.24
					c1.04-1.03,2.51-1.55,4.41-1.55c1.5,0,2.68,0.3,3.53,0.91l-1.09,2.94c-0.67-0.46-1.39-0.69-2.16-0.69
					C409.5,167.02,408.68,167.91,408.68,169.71z"/>
				<path class="st23" d="M431.28,180.18h-13.1c0.23,1.23,0.83,2.2,1.8,2.92c0.97,0.72,2.17,1.08,3.61,1.08
					c1.83,0,3.35-0.6,4.53-1.81l2.09,2.41c-0.75,0.9-1.7,1.57-2.85,2.03c-1.15,0.46-2.44,0.69-3.88,0.69
					c-1.83,0-3.45-0.36-4.85-1.09c-1.4-0.73-2.48-1.75-3.24-3.05c-0.76-1.3-1.14-2.78-1.14-4.42c0-1.63,0.37-3.09,1.11-4.39
					c0.74-1.3,1.77-2.32,3.08-3.05c1.31-0.73,2.79-1.09,4.44-1.09c1.63,0,3.08,0.36,4.36,1.08c1.28,0.72,2.28,1.73,3,3.03
					c0.72,1.3,1.08,2.81,1.08,4.52C431.34,179.29,431.32,179.68,431.28,180.18z M419.73,174.63c-0.87,0.74-1.39,1.73-1.58,2.95h9.47
					c-0.17-1.21-0.68-2.19-1.53-2.94c-0.85-0.75-1.92-1.13-3.19-1.13C421.65,173.52,420.59,173.89,419.73,174.63z"/>
				<path class="st23" d="M438.1,186.4c-1.38-0.73-2.45-1.75-3.22-3.05c-0.77-1.3-1.16-2.78-1.16-4.42c0-1.65,0.39-3.12,1.16-4.41
					c0.77-1.29,1.84-2.3,3.2-3.03c1.36-0.73,2.92-1.09,4.67-1.09c1.65,0,3.09,0.33,4.33,1c1.24,0.67,2.17,1.63,2.8,2.88l-3,1.75
					c-0.48-0.77-1.08-1.35-1.8-1.74c-0.72-0.39-1.51-0.58-2.36-0.58c-1.46,0-2.67,0.47-3.63,1.42c-0.96,0.95-1.44,2.21-1.44,3.8
					c0,1.58,0.47,2.85,1.42,3.8c0.95,0.95,2.16,1.42,3.64,1.42c0.85,0,1.64-0.19,2.36-0.58c0.72-0.39,1.32-0.96,1.8-1.74l3,1.75
					c-0.65,1.25-1.59,2.21-2.83,2.89c-1.24,0.68-2.67,1.02-4.3,1.02C441.02,187.5,439.47,187.13,438.1,186.4z"/>
				<path class="st23" d="M463.51,186.37c-0.46,0.38-1.02,0.66-1.67,0.84c-0.66,0.19-1.35,0.28-2.08,0.28
					c-1.83,0-3.25-0.48-4.25-1.44c-1-0.96-1.5-2.35-1.5-4.19v-8.04h-2.75v-3.13h2.75v-3.81h3.91v3.81h4.47v3.13h-4.47v7.94
					c0,0.81,0.2,1.43,0.59,1.86c0.4,0.43,0.97,0.64,1.72,0.64c0.88,0,1.6-0.23,2.19-0.69L463.51,186.37z"/>
				<path class="st23" d="M466.92,167.16c-0.48-0.45-0.72-1.01-0.72-1.67s0.24-1.22,0.72-1.67c0.48-0.45,1.07-0.67,1.78-0.67
					s1.3,0.21,1.78,0.64c0.48,0.43,0.72,0.96,0.72,1.61c0,0.69-0.23,1.27-0.7,1.73c-0.47,0.47-1.07,0.7-1.8,0.7
					C467.99,167.83,467.4,167.61,466.92,167.16z M466.73,170.58h3.91v16.7h-3.91V170.58z"/>
				<path class="st23" d="M491.4,170.58l-7.16,16.7h-4.03l-7.16-16.7h4.06l5.19,12.38l5.35-12.38H491.4z"/>
				<path class="st23" d="M509,180.18h-13.1c0.23,1.23,0.83,2.2,1.8,2.92c0.97,0.72,2.17,1.08,3.61,1.08c1.83,0,3.34-0.6,4.53-1.81
					l2.09,2.41c-0.75,0.9-1.7,1.57-2.85,2.03s-2.44,0.69-3.88,0.69c-1.83,0-3.45-0.36-4.85-1.09c-1.4-0.73-2.48-1.75-3.24-3.05
					c-0.76-1.3-1.14-2.78-1.14-4.42c0-1.63,0.37-3.09,1.11-4.39c0.74-1.3,1.77-2.32,3.08-3.05c1.31-0.73,2.79-1.09,4.44-1.09
					c1.63,0,3.08,0.36,4.36,1.08c1.28,0.72,2.28,1.73,3,3.03c0.72,1.3,1.08,2.81,1.08,4.52C509.06,179.29,509.04,179.68,509,180.18z
					 M497.45,174.63c-0.87,0.74-1.39,1.73-1.58,2.95h9.47c-0.17-1.21-0.68-2.19-1.53-2.94c-0.86-0.75-1.92-1.13-3.19-1.13
					C499.37,173.52,498.31,173.89,497.45,174.63z"/>
				<path class="st23" d="M54.91,210.44c1.41,0.63,2.49,1.52,3.24,2.69c0.75,1.17,1.13,2.55,1.13,4.16c0,1.58-0.38,2.97-1.13,4.14
					c-0.75,1.18-1.83,2.08-3.24,2.7c-1.41,0.63-3.06,0.94-4.96,0.94h-4.94v6.32h-4.06V209.5h9C51.85,209.5,53.5,209.81,54.91,210.44
					z M53.8,220.5c0.92-0.75,1.38-1.82,1.38-3.22c0-1.4-0.46-2.47-1.38-3.22c-0.92-0.75-2.26-1.13-4.03-1.13h-4.75v8.69h4.75
					C51.54,221.63,52.88,221.25,53.8,220.5z"/>
				<path class="st23" d="M63.27,208.19h3.91v23.2h-3.91V208.19z"/>
				<path class="st23" d="M84.33,216.27c1.3,1.18,1.95,2.95,1.95,5.33v9.79H82.6v-2.03c-0.48,0.73-1.16,1.29-2.05,1.67
					c-0.89,0.39-1.95,0.58-3.2,0.58s-2.34-0.21-3.28-0.64c-0.94-0.43-1.66-1.02-2.17-1.78c-0.51-0.76-0.77-1.62-0.77-2.58
					c0-1.5,0.56-2.7,1.67-3.61c1.11-0.91,2.87-1.36,5.27-1.36h4.31v-0.25c0-1.17-0.35-2.06-1.05-2.69c-0.7-0.62-1.74-0.94-3.11-0.94
					c-0.94,0-1.86,0.15-2.77,0.44s-1.67,0.7-2.3,1.22l-1.53-2.85c0.88-0.67,1.93-1.18,3.16-1.53c1.23-0.35,2.53-0.53,3.91-0.53
					C81.15,214.5,83.03,215.09,84.33,216.27z M80.77,228.08c0.76-0.45,1.3-1.09,1.61-1.92v-1.94h-4.03c-2.25,0-3.38,0.74-3.38,2.22
					c0,0.71,0.28,1.27,0.84,1.69c0.56,0.42,1.34,0.63,2.34,0.63C79.14,228.76,80.01,228.53,80.77,228.08z"/>
				<path class="st23" d="M94.44,230.51c-1.38-0.73-2.45-1.75-3.22-3.05c-0.77-1.3-1.16-2.78-1.16-4.42c0-1.65,0.39-3.12,1.16-4.41
					c0.77-1.29,1.84-2.3,3.2-3.03c1.36-0.73,2.92-1.09,4.67-1.09c1.65,0,3.09,0.33,4.33,1c1.24,0.67,2.17,1.63,2.8,2.88l-3,1.75
					c-0.48-0.77-1.08-1.35-1.8-1.74c-0.72-0.39-1.51-0.58-2.36-0.58c-1.46,0-2.67,0.47-3.63,1.42c-0.96,0.95-1.44,2.21-1.44,3.8
					c0,1.58,0.47,2.85,1.42,3.8c0.95,0.95,2.16,1.42,3.64,1.42c0.85,0,1.64-0.19,2.36-0.58c0.72-0.39,1.32-0.96,1.8-1.74l3,1.75
					c-0.65,1.25-1.59,2.21-2.83,2.89c-1.24,0.68-2.67,1.02-4.3,1.02C97.37,231.6,95.82,231.24,94.44,230.51z"/>
				<path class="st23" d="M124.99,224.29h-13.1c0.23,1.23,0.83,2.2,1.8,2.92c0.97,0.72,2.17,1.08,3.61,1.08
					c1.83,0,3.35-0.6,4.53-1.81l2.09,2.41c-0.75,0.9-1.7,1.57-2.85,2.03c-1.15,0.46-2.44,0.69-3.88,0.69
					c-1.83,0-3.45-0.36-4.85-1.09c-1.4-0.73-2.48-1.75-3.24-3.05c-0.76-1.3-1.14-2.78-1.14-4.42c0-1.63,0.37-3.09,1.11-4.39
					c0.74-1.3,1.77-2.32,3.08-3.05c1.31-0.73,2.79-1.09,4.44-1.09c1.63,0,3.08,0.36,4.36,1.08c1.28,0.72,2.28,1.73,3,3.03
					c0.72,1.3,1.08,2.81,1.08,4.52C125.05,223.4,125.03,223.79,124.99,224.29z M113.44,218.74c-0.87,0.74-1.39,1.73-1.58,2.95h9.47
					c-0.17-1.21-0.68-2.19-1.53-2.94c-0.85-0.75-1.92-1.13-3.19-1.13C115.36,217.63,114.3,218,113.44,218.74z"/>
				<path class="st23" d="M154.88,216.33c1.23,1.22,1.84,3.05,1.84,5.49v9.57h-3.91v-9.07c0-1.46-0.32-2.56-0.97-3.3
					c-0.65-0.74-1.57-1.11-2.78-1.11c-1.31,0-2.37,0.43-3.16,1.3s-1.19,2.1-1.19,3.7v8.47h-3.91v-9.07c0-1.46-0.32-2.56-0.97-3.3
					c-0.65-0.74-1.57-1.11-2.78-1.11c-1.33,0-2.39,0.43-3.17,1.28s-1.17,2.09-1.17,3.72v8.47h-3.91v-16.7h3.72v2.13
					c0.62-0.75,1.41-1.32,2.34-1.72s1.98-0.59,3.13-0.59c1.25,0,2.36,0.23,3.33,0.7c0.97,0.47,1.74,1.16,2.3,2.08
					c0.69-0.88,1.57-1.56,2.66-2.05c1.08-0.49,2.28-0.73,3.6-0.73C151.98,214.5,153.65,215.11,154.88,216.33z"/>
				<path class="st23" d="M177.51,224.29h-13.1c0.23,1.23,0.83,2.2,1.8,2.92c0.97,0.72,2.17,1.08,3.61,1.08
					c1.83,0,3.35-0.6,4.53-1.81l2.09,2.41c-0.75,0.9-1.7,1.57-2.85,2.03c-1.15,0.46-2.44,0.69-3.88,0.69
					c-1.83,0-3.45-0.36-4.85-1.09c-1.4-0.73-2.48-1.75-3.24-3.05c-0.76-1.3-1.14-2.78-1.14-4.42c0-1.63,0.37-3.09,1.11-4.39
					c0.74-1.3,1.77-2.32,3.08-3.05c1.31-0.73,2.79-1.09,4.44-1.09c1.63,0,3.08,0.36,4.36,1.08c1.28,0.72,2.28,1.73,3,3.03
					c0.72,1.3,1.08,2.81,1.08,4.52C177.57,223.4,177.55,223.79,177.51,224.29z M165.96,218.74c-0.87,0.74-1.39,1.73-1.58,2.95h9.47
					c-0.17-1.21-0.68-2.19-1.53-2.94c-0.85-0.75-1.92-1.13-3.19-1.13C167.88,217.63,166.82,218,165.96,218.74z"/>
				<path class="st23" d="M195.86,216.35c1.27,1.23,1.91,3.05,1.91,5.47v9.57h-3.91v-9.07c0-1.46-0.34-2.56-1.03-3.3
					c-0.69-0.74-1.67-1.11-2.94-1.11c-1.44,0-2.57,0.43-3.41,1.3c-0.83,0.86-1.25,2.11-1.25,3.74v8.44h-3.91v-16.7h3.72v2.16
					c0.65-0.77,1.46-1.35,2.44-1.75c0.98-0.4,2.08-0.59,3.31-0.59C192.9,214.5,194.59,215.12,195.86,216.35z"/>
				<path class="st23" d="M212.78,230.48c-0.46,0.38-1.02,0.66-1.67,0.84c-0.66,0.19-1.35,0.28-2.08,0.28
					c-1.83,0-3.25-0.48-4.25-1.44c-1-0.96-1.5-2.35-1.5-4.19v-8.04h-2.75v-3.13h2.75V211h3.91v3.81h4.47v3.13h-4.47v7.94
					c0,0.81,0.2,1.43,0.59,1.86c0.4,0.43,0.97,0.64,1.72,0.64c0.88,0,1.6-0.23,2.19-0.69L212.78,230.48z"/>
				<path class="st23" d="M238.96,210.44c1.41,0.63,2.49,1.52,3.24,2.69c0.75,1.17,1.13,2.55,1.13,4.16c0,1.58-0.38,2.97-1.13,4.14
					c-0.75,1.18-1.83,2.08-3.24,2.7c-1.41,0.63-3.06,0.94-4.96,0.94h-4.94v6.32H225V209.5h9
					C235.9,209.5,237.55,209.81,238.96,210.44z M237.85,220.5c0.92-0.75,1.38-1.82,1.38-3.22c0-1.4-0.46-2.47-1.38-3.22
					c-0.92-0.75-2.26-1.13-4.03-1.13h-4.75v8.69h4.75C235.59,221.63,236.93,221.25,237.85,220.5z"/>
				<path class="st23" d="M249.89,230.51c-1.35-0.73-2.41-1.75-3.17-3.05c-0.76-1.3-1.14-2.78-1.14-4.42c0-1.65,0.38-3.12,1.14-4.41
					c0.76-1.29,1.82-2.3,3.17-3.03c1.35-0.73,2.88-1.09,4.56-1.09c1.71,0,3.24,0.37,4.6,1.09c1.35,0.73,2.41,1.74,3.17,3.03
					c0.76,1.29,1.14,2.76,1.14,4.41c0,1.65-0.38,3.12-1.14,4.42c-0.76,1.3-1.82,2.32-3.17,3.05c-1.36,0.73-2.89,1.09-4.6,1.09
					C252.76,231.6,251.24,231.24,249.89,230.51z M258.02,226.82c0.94-0.96,1.41-2.22,1.41-3.78c0-1.56-0.47-2.82-1.41-3.78
					c-0.94-0.96-2.13-1.44-3.56-1.44c-1.44,0-2.62,0.48-3.55,1.44c-0.93,0.96-1.39,2.22-1.39,3.78c0,1.56,0.46,2.82,1.39,3.78
					c0.93,0.96,2.11,1.44,3.55,1.44C255.89,228.26,257.08,227.78,258.02,226.82z"/>
				<path class="st23" d="M276.77,214.5v3.72c-0.33-0.06-0.64-0.09-0.91-0.09c-1.52,0-2.71,0.44-3.56,1.33
					c-0.85,0.89-1.28,2.16-1.28,3.83v8.1h-3.91v-16.7h3.72v2.44C271.96,215.38,273.94,214.5,276.77,214.5z"/>
				<path class="st23" d="M290.75,230.48c-0.46,0.38-1.02,0.66-1.67,0.84c-0.66,0.19-1.35,0.28-2.08,0.28
					c-1.83,0-3.25-0.48-4.25-1.44c-1-0.96-1.5-2.35-1.5-4.19v-8.04h-2.75v-3.13h2.75V211h3.91v3.81h4.47v3.13h-4.47v7.94
					c0,0.81,0.2,1.43,0.59,1.86c0.4,0.43,0.97,0.64,1.72,0.64c0.88,0,1.6-0.23,2.19-0.69L290.75,230.48z"/>
				<path class="st23" d="M305.99,216.27c1.3,1.18,1.95,2.95,1.95,5.33v9.79h-3.69v-2.03c-0.48,0.73-1.16,1.29-2.05,1.67
					c-0.89,0.39-1.95,0.58-3.2,0.58s-2.34-0.21-3.28-0.64c-0.94-0.43-1.66-1.02-2.17-1.78c-0.51-0.76-0.77-1.62-0.77-2.58
					c0-1.5,0.56-2.7,1.67-3.61c1.11-0.91,2.87-1.36,5.27-1.36h4.31v-0.25c0-1.17-0.35-2.06-1.05-2.69c-0.7-0.62-1.74-0.94-3.11-0.94
					c-0.94,0-1.86,0.15-2.77,0.44s-1.67,0.7-2.3,1.22l-1.53-2.85c0.88-0.67,1.93-1.18,3.16-1.53c1.23-0.35,2.53-0.53,3.91-0.53
					C302.81,214.5,304.69,215.09,305.99,216.27z M302.43,228.08c0.76-0.45,1.3-1.09,1.61-1.92v-1.94H300
					c-2.25,0-3.38,0.74-3.38,2.22c0,0.71,0.28,1.27,0.84,1.69c0.56,0.42,1.34,0.63,2.34,0.63
					C300.8,228.76,301.67,228.53,302.43,228.08z"/>
				<path class="st23" d="M312.95,208.19h3.91v23.2h-3.91V208.19z"/>
			</g>
		</g>
		<g>
			<g>
				<path class="st24" d="M106.95,86.54c1.41,0.64,2.49,1.54,3.26,2.72c0.76,1.17,1.14,2.56,1.14,4.17c0,1.58-0.38,2.97-1.14,4.15
					c-0.76,1.18-1.85,2.09-3.26,2.72c-1.41,0.63-3.07,0.94-4.98,0.94h-4.35v5.96h-5v-21.6h9.35
					C103.88,85.59,105.54,85.91,106.95,86.54z M105.12,96.19c0.78-0.65,1.17-1.57,1.17-2.76c0-1.21-0.39-2.14-1.17-2.79
					c-0.78-0.65-1.92-0.97-3.43-0.97h-4.07v7.5h4.07C103.19,97.16,104.34,96.83,105.12,96.19z"/>
				<path class="st24" d="M114.87,84.29h4.81v22.9h-4.81V84.29z"/>
				<path class="st24" d="M136.78,92.18c1.38,1.22,2.07,3.07,2.07,5.54v9.47h-4.51v-2.07c-0.91,1.54-2.59,2.31-5.06,2.31
					c-1.28,0-2.38-0.22-3.32-0.65c-0.94-0.43-1.65-1.03-2.14-1.79c-0.49-0.76-0.74-1.62-0.74-2.59c0-1.54,0.58-2.76,1.74-3.64
					c1.16-0.88,2.96-1.33,5.38-1.33h3.83c0-1.05-0.32-1.86-0.96-2.42s-1.59-0.85-2.87-0.85c-0.88,0-1.75,0.14-2.61,0.42
					c-0.85,0.28-1.58,0.65-2.18,1.13l-1.73-3.36c0.91-0.64,1.99-1.13,3.26-1.48c1.27-0.35,2.57-0.52,3.9-0.52
					C133.42,90.34,135.4,90.95,136.78,92.18z M132.67,103.62c0.64-0.38,1.09-0.94,1.36-1.68v-1.7h-3.3c-1.97,0-2.96,0.65-2.96,1.94
					c0,0.62,0.24,1.11,0.73,1.47c0.48,0.36,1.15,0.54,1.99,0.54C131.31,104.19,132.04,104,132.67,103.62z"/>
				<path class="st24" d="M146.64,106.34c-1.41-0.73-2.51-1.74-3.3-3.04s-1.19-2.77-1.19-4.41c0-1.65,0.4-3.12,1.19-4.41
					c0.79-1.3,1.89-2.31,3.3-3.04c1.41-0.73,3-1.1,4.77-1.1c1.75,0,3.28,0.37,4.58,1.1c1.31,0.73,2.26,1.77,2.85,3.13l-3.73,2.01
					c-0.86-1.52-2.11-2.28-3.73-2.28c-1.25,0-2.29,0.41-3.12,1.23c-0.82,0.82-1.23,1.94-1.23,3.36s0.41,2.54,1.23,3.36
					c0.82,0.82,1.86,1.23,3.12,1.23c1.65,0,2.89-0.76,3.73-2.28l3.73,2.04c-0.6,1.32-1.55,2.35-2.85,3.09
					c-1.31,0.74-2.83,1.11-4.58,1.11C149.63,107.44,148.05,107.07,146.64,106.34z"/>
				<path class="st24" d="M177.57,100.25h-12.56c0.23,1.03,0.76,1.84,1.6,2.44c0.84,0.6,1.89,0.9,3.15,0.9
					c0.86,0,1.63-0.13,2.3-0.39c0.67-0.26,1.29-0.66,1.87-1.22l2.56,2.78c-1.56,1.79-3.85,2.69-6.85,2.69
					c-1.87,0-3.53-0.37-4.97-1.1c-1.44-0.73-2.55-1.74-3.33-3.04c-0.78-1.3-1.17-2.77-1.17-4.41c0-1.62,0.39-3.09,1.16-4.4
					c0.77-1.31,1.83-2.32,3.18-3.05c1.35-0.73,2.85-1.1,4.52-1.1c1.62,0,3.1,0.35,4.41,1.05c1.32,0.7,2.35,1.7,3.1,3.01
					c0.75,1.31,1.13,2.82,1.13,4.55C177.66,99.01,177.63,99.44,177.57,100.25z M166.31,94.91c-0.74,0.62-1.19,1.46-1.36,2.53h8.18
					c-0.16-1.05-0.62-1.89-1.36-2.52c-0.74-0.63-1.65-0.94-2.72-0.94C167.96,93.98,167.05,94.29,166.31,94.91z"/>
				<path class="st24" d="M207.09,92.18c1.22,1.22,1.84,3.06,1.84,5.51v9.5h-4.81v-8.76c0-1.32-0.27-2.3-0.82-2.95
					c-0.55-0.65-1.32-0.97-2.33-0.97c-1.13,0-2.03,0.37-2.68,1.1c-0.66,0.73-0.99,1.82-0.99,3.26v8.33h-4.81v-8.76
					c0-2.61-1.05-3.92-3.15-3.92c-1.11,0-2,0.37-2.65,1.1c-0.66,0.73-0.99,1.82-0.99,3.26v8.33h-4.81v-16.6h4.6v1.91
					c0.62-0.7,1.37-1.23,2.27-1.6c0.89-0.37,1.88-0.56,2.95-0.56c1.17,0,2.23,0.23,3.18,0.69s1.71,1.14,2.28,2.02
					c0.68-0.86,1.54-1.53,2.58-2.01c1.04-0.47,2.18-0.71,3.41-0.71C204.21,90.34,205.86,90.95,207.09,92.18z"/>
				<path class="st24" d="M229.6,100.25h-12.56c0.23,1.03,0.76,1.84,1.6,2.44c0.84,0.6,1.89,0.9,3.15,0.9c0.86,0,1.63-0.13,2.3-0.39
					c0.67-0.26,1.29-0.66,1.87-1.22l2.56,2.78c-1.56,1.79-3.85,2.69-6.85,2.69c-1.87,0-3.53-0.37-4.97-1.1
					c-1.44-0.73-2.55-1.74-3.33-3.04c-0.78-1.3-1.17-2.77-1.17-4.41c0-1.62,0.39-3.09,1.16-4.4c0.77-1.31,1.83-2.32,3.18-3.05
					c1.35-0.73,2.85-1.1,4.52-1.1c1.62,0,3.1,0.35,4.41,1.05c1.32,0.7,2.35,1.7,3.1,3.01c0.75,1.31,1.13,2.82,1.13,4.55
					C229.69,99.01,229.66,99.44,229.6,100.25z M218.34,94.91c-0.74,0.62-1.19,1.46-1.36,2.53h8.18c-0.16-1.05-0.62-1.89-1.36-2.52
					c-0.74-0.63-1.65-0.94-2.72-0.94C219.99,93.98,219.08,94.29,218.34,94.91z"/>
				<path class="st24" d="M247.97,92.19c1.27,1.23,1.9,3.07,1.9,5.49v9.5h-4.81v-8.76c0-1.32-0.29-2.3-0.86-2.95
					c-0.58-0.65-1.41-0.97-2.5-0.97c-1.21,0-2.18,0.38-2.9,1.13c-0.72,0.75-1.08,1.87-1.08,3.35v8.21h-4.81v-16.6h4.6v1.94
					c0.64-0.7,1.43-1.24,2.38-1.62c0.95-0.38,1.98-0.57,3.12-0.57C245.05,90.34,246.71,90.96,247.97,92.19z"/>
				<path class="st24" d="M264.93,106.39c-0.47,0.35-1.05,0.61-1.74,0.79c-0.69,0.17-1.41,0.26-2.18,0.26c-1.98,0-3.5-0.5-4.58-1.51
					c-1.08-1.01-1.62-2.49-1.62-4.44v-6.82h-2.56v-3.7h2.56v-4.04h4.81v4.04h4.13v3.7h-4.13v6.76c0,0.7,0.18,1.24,0.54,1.62
					c0.36,0.38,0.87,0.57,1.53,0.57c0.76,0,1.41-0.21,1.94-0.62L264.93,106.39z"/>
				<path class="st24" d="M282.32,86.54c1.41,0.64,2.49,1.54,3.26,2.72c0.76,1.17,1.14,2.56,1.14,4.17c0,1.58-0.38,2.97-1.14,4.15
					c-0.76,1.18-1.85,2.09-3.26,2.72c-1.41,0.63-3.07,0.94-4.98,0.94h-4.35v5.96h-5v-21.6h9.35
					C279.25,85.59,280.91,85.91,282.32,86.54z M280.48,96.19c0.78-0.65,1.17-1.57,1.17-2.76c0-1.21-0.39-2.14-1.17-2.79
					c-0.78-0.65-1.92-0.97-3.43-0.97h-4.07v7.5h4.07C278.56,97.16,279.7,96.83,280.48,96.19z"/>
				<path class="st24" d="M293.09,106.34c-1.39-0.73-2.47-1.74-3.26-3.04c-0.78-1.3-1.17-2.77-1.17-4.41c0-1.65,0.39-3.12,1.17-4.41
					c0.78-1.3,1.87-2.31,3.26-3.04c1.39-0.73,2.96-1.1,4.71-1.1c1.75,0,3.31,0.37,4.69,1.1c1.38,0.73,2.46,1.74,3.24,3.04
					c0.78,1.3,1.17,2.77,1.17,4.41c0,1.65-0.39,3.12-1.17,4.41c-0.78,1.3-1.86,2.31-3.24,3.04c-1.38,0.73-2.94,1.1-4.69,1.1
					C296.05,107.44,294.48,107.07,293.09,106.34z M300.83,102.24c0.79-0.83,1.19-1.95,1.19-3.35s-0.4-2.52-1.19-3.35
					c-0.79-0.83-1.81-1.25-3.04-1.25s-2.25,0.42-3.06,1.25s-1.2,1.95-1.2,3.35s0.4,2.51,1.2,3.35c0.8,0.83,1.82,1.25,3.06,1.25
					S300.04,103.07,300.83,102.24z"/>
				<path class="st24" d="M317.04,90.96c0.98-0.41,2.1-0.62,3.38-0.62v4.44c-0.54-0.04-0.9-0.06-1.08-0.06
					c-1.38,0-2.46,0.39-3.24,1.16c-0.78,0.77-1.17,1.93-1.17,3.47v7.84h-4.81v-16.6h4.6v2.19
					C315.28,91.98,316.06,91.37,317.04,90.96z"/>
				<path class="st24" d="M334.58,106.39c-0.47,0.35-1.05,0.61-1.74,0.79c-0.69,0.17-1.41,0.26-2.18,0.26c-1.98,0-3.5-0.5-4.58-1.51
					c-1.08-1.01-1.62-2.49-1.62-4.44v-6.82h-2.56v-3.7h2.56v-4.04h4.81v4.04h4.13v3.7h-4.13v6.76c0,0.7,0.18,1.24,0.54,1.62
					c0.36,0.38,0.87,0.57,1.53,0.57c0.76,0,1.41-0.21,1.94-0.62L334.58,106.39z"/>
				<path class="st24" d="M349.91,92.18c1.38,1.22,2.07,3.07,2.07,5.54v9.47h-4.51v-2.07c-0.91,1.54-2.59,2.31-5.06,2.31
					c-1.28,0-2.38-0.22-3.32-0.65c-0.94-0.43-1.65-1.03-2.14-1.79c-0.49-0.76-0.74-1.62-0.74-2.59c0-1.54,0.58-2.76,1.74-3.64
					c1.16-0.88,2.96-1.33,5.38-1.33h3.83c0-1.05-0.32-1.86-0.96-2.42s-1.59-0.85-2.87-0.85c-0.88,0-1.75,0.14-2.61,0.42
					c-0.85,0.28-1.58,0.65-2.18,1.13l-1.73-3.36c0.91-0.64,1.99-1.13,3.26-1.48c1.27-0.35,2.57-0.52,3.9-0.52
					C346.56,90.34,348.54,90.95,349.91,92.18z M345.81,103.62c0.64-0.38,1.09-0.94,1.36-1.68v-1.7h-3.3c-1.97,0-2.96,0.65-2.96,1.94
					c0,0.62,0.24,1.11,0.73,1.47c0.48,0.36,1.15,0.54,1.99,0.54C344.44,104.19,345.17,104,345.81,103.62z"/>
				<path class="st24" d="M356.33,84.29h4.81v22.9h-4.81V84.29z"/>
			</g>
			<g>
				<path class="st25" d="M54.62,98.7l-1.67-5.31c-0.82,0.47-1.57,1.05-2.22,1.72c-1.98,1.98-3.21,4.71-3.21,7.74
					c0,3.03,1.22,5.76,3.21,7.74c0.56,0.56,1.19,1.07,1.87,1.5l2.02-13.37L54.62,98.7z M60.39,99.65h-3.84l-2.98,19.74l4.71,4.42
					c0.1,0.1,0.27,0.1,0.37,0l4.71-4.42C63.36,119.39,60.39,99.65,60.39,99.65z M63.98,93.39l-1.67,5.31l2.02,13.37
					c0.68-0.44,1.31-0.94,1.87-1.5c1.98-1.98,3.21-4.71,3.21-7.74c0-3.03-1.22-5.76-3.21-7.74c-0.67-0.67-1.41-1.25-2.22-1.72V93.39
					z M54.83,92.51l1.59,5.07c1.37-0.01,2.72-0.01,4.09,0l1.59-5.07c-1.14-0.4-2.36-0.62-3.65-0.62s-2.5,0.22-3.65,0.62H54.83z
					 M58.47,83.76c5.26,0,10.04,2.13,13.49,5.58c3.45,3.45,5.58,8.23,5.58,13.49c0,5.26-2.13,10.04-5.58,13.49
					c-2,2-4.44,3.56-7.16,4.51l-6.15,5.76c-0.1,0.1-0.27,0.1-0.37,0l-0.51-0.47l-5.63-5.29c-2.72-0.96-5.16-2.52-7.16-4.51
					c-3.45-3.45-5.58-8.21-5.58-13.49s2.13-10.04,5.58-13.49c3.45-3.45,8.21-5.58,13.49-5.58L58.47,83.76z"/>
				<circle class="st25" cx="58.46" cy="74.51" r="9.45"/>
			</g>
		</g>
	</g>
</g>
</svg>
