<?xml version="1.0" encoding="UTF-8"?>
<svg id="Layer_1" data-name="Layer 1" xmlns="http://www.w3.org/2000/svg" width="52" height="52" viewBox="0 0 52 52">
  <defs>
    <style>
      .cls-1 {
        fill: #4154f1;
      }
    </style>
  </defs>
  <path class="cls-1" d="M23.01,28.21l-1.3-4.14c-.64,.37-1.22,.82-1.73,1.34-1.54,1.54-2.5,3.67-2.5,6.03s.95,4.49,2.5,6.03c.44,.44,.93,.83,1.46,1.17l1.57-10.42Zm4.49,.74h-2.99l-2.32,15.38,3.67,3.44c.08,.08,.21,.08,.29,0l3.67-3.44-2.32-15.38Zm2.8-4.88l-1.3,4.14,1.57,10.42c.53-.34,1.02-.73,1.46-1.17,1.54-1.54,2.5-3.67,2.5-6.03s-.95-4.49-2.5-6.03c-.52-.52-1.1-.97-1.73-1.34Zm-7.13-.68l1.24,3.95c1.07-.01,2.12-.01,3.19,0l1.24-3.95c-.89-.31-1.84-.48-2.84-.48s-1.95,.17-2.84,.48Zm2.84-6.82c4.1,0,7.82,1.66,10.51,4.35,2.69,2.69,4.35,6.41,4.35,10.51s-1.66,7.82-4.35,10.51c-1.56,1.56-3.46,2.77-5.58,3.51l-4.79,4.49c-.08,.08-.21,.08-.29,0l-.4-.37-4.39-4.12c-2.12-.75-4.02-1.96-5.58-3.51-2.69-2.69-4.35-6.4-4.35-10.51s1.66-7.82,4.35-10.51c2.69-2.69,6.4-4.35,10.51-4.35Z"/>
  <circle class="cls-1" cx="26" cy="9.36" r="7.36"/>
</svg>